<?xml version="1.0" standalone="no"?><!DOCTYPE svg PUBLIC "-//W3C//DTD SVG 1.1//EN" "http://www.w3.org/Graphics/SVG/1.1/DTD/svg11.dtd"><svg t="1522919442126" class="icon" style="" viewBox="0 0 1025 1024" version="1.1" xmlns="http://www.w3.org/2000/svg" p-id="1914" xmlns:xlink="http://www.w3.org/1999/xlink" width="128.125" height="128"><defs><style type="text/css"></style></defs><path d="M1023.744 804.864c-32.512-160.256-121.344-239.104-167.168-270.08 39.424-55.296 63.232-134.656 63.232-215.296 0-98.816-42.496-192.256-110.848-243.712-11.264-8.448-27.136-6.144-35.584 5.12-8.448 11.264-6.144 27.136 5.12 35.584 55.04 41.472 90.368 121.088 90.368 203.008 0 79.872-27.136 160-69.12 204.544-5.632 5.888-7.936 14.336-6.4 22.272 1.536 8.192 6.912 14.848 14.336 18.176 1.28 0.512 127.744 60.16 166.144 250.368 2.56 12.032 13.056 20.48 24.832 20.48 1.792 0 3.328-0.256 5.12-0.512C1017.6 832 1026.56 818.688 1023.744 804.864z" p-id="1915"></path><path d="M696.832 581.12c-1.024-0.768-2.048-1.536-3.072-2.304-1.536-0.768-3.072-1.792-6.144-3.328-8.96-5.12-17.92-10.24-27.136-14.848l-2.816-1.536c-1.024-0.512-2.048-1.024-3.328-1.536 67.072-57.088 105.984-139.776 105.984-228.864 0-166.912-136.96-302.592-305.152-302.592-168.192 0-305.152 135.68-305.152 302.592 0 89.088 38.912 171.776 105.984 228.864-1.28 0.512-2.304 1.28-3.584 1.792l-2.56 1.28c-9.216 4.608-18.176 9.472-28.672 15.616-1.536 0.768-3.072 1.536-4.608 2.56-1.024 0.768-2.048 1.28-3.072 2.048-133.888 83.2-213.504 225.536-213.504 381.44 0 2.56 0.256 4.864 0.256 7.424l0.256 3.328c0.256 13.824 11.52 24.832 25.6 24.832l858.112 0c13.824 0 25.088-11.008 25.6-24.832l0.256-3.328c0.256-2.56 0.256-4.864 0.256-7.424C910.336 806.4 830.72 664.064 696.832 581.12zM51.456 946.944c5.12-133.12 76.032-253.696 192-324.352 0.768-0.512 1.28-0.768 2.048-1.28 1.28-0.512 2.304-1.28 3.584-1.792 7.936-4.608 15.872-8.96 24.064-13.056l8.96-4.608c12.8-5.888 23.552-10.496 33.792-14.336 9.216-3.328 15.616-11.52 16.64-21.248 1.024-9.728-3.584-19.2-12.032-24.32-74.752-46.336-119.552-125.952-119.552-212.992 0-138.752 114.176-251.648 254.208-251.648 140.288 0 254.208 112.896 254.208 251.648 0 87.04-44.8 166.656-119.552 212.992-8.192 5.12-12.8 14.592-12.032 24.32 1.024 9.728 7.424 17.92 16.64 21.248 10.24 3.84 21.248 8.448 33.792 14.336l8.96 4.608c8.192 4.096 16.128 8.448 24.064 13.056 1.024 0.512 1.792 1.024 3.328 1.792 0.512 0.512 1.28 1.024 2.048 1.28 115.968 70.912 186.88 191.232 192 324.352L51.456 946.944z" p-id="1916"></path></svg>